<?xml version="1.0" standalone="no"?><!DOCTYPE svg PUBLIC "-//W3C//DTD SVG 1.1//EN" "http://www.w3.org/Graphics/SVG/1.1/DTD/svg11.dtd"><svg t="1600435467530" class="icon" viewBox="0 0 1024 1024" version="1.1" xmlns="http://www.w3.org/2000/svg" p-id="2081" xmlns:xlink="http://www.w3.org/1999/xlink" width="200" height="200"><defs><style type="text/css"></style></defs><path d="M875.52 903.36a32 32 0 0 1-32-32 320 320 0 0 0-640 0 32 32 0 1 1-64 0 384 384 0 0 1 768 0 32 32 0 0 1-32 32z" p-id="2082" fill="#d4237a"></path><path d="M523.52 551.36a210.24 210.24 0 1 1 210.24-210.24 210.24 210.24 0 0 1-210.24 210.24z m0-356.48a146.24 146.24 0 1 0 146.24 146.24 146.56 146.56 0 0 0-146.24-146.24z" p-id="2083" fill="#d4237a"></path></svg>