<?xml version="1.0" standalone="no"?><!DOCTYPE svg PUBLIC "-//W3C//DTD SVG 1.1//EN" "http://www.w3.org/Graphics/SVG/1.1/DTD/svg11.dtd"><svg t="1600435458365" class="icon" viewBox="0 0 1024 1024" version="1.1" xmlns="http://www.w3.org/2000/svg" p-id="1861" xmlns:xlink="http://www.w3.org/1999/xlink" width="200" height="200"><defs><style type="text/css"></style></defs><path d="M417.6 784m-40.96 0a40.96 40.96 0 1 0 81.92 0 40.96 40.96 0 1 0-81.92 0Z" p-id="1862" fill="#2c2c2c"></path><path d="M781.12 784m-40.96 0a40.96 40.96 0 1 0 81.92 0 40.96 40.96 0 1 0-81.92 0Z" p-id="1863" fill="#2c2c2c"></path><path d="M787.52 569.6h-457.6L276.16 300.48h569.6A62.08 62.08 0 0 1 903.04 384l-58.24 146.88a61.76 61.76 0 0 1-57.28 38.72zM384 505.6h401.92l56.32-141.12H354.24z" p-id="1864" fill="#2c2c2c"></path><path d="M822.08 713.28H423.68a79.04 79.04 0 0 1-79.04-75.2L264.32 248a384 384 0 0 0-92.8-6.72 32 32 0 0 1 0-64c64 0 151.04 0 154.88 54.4l82.24 402.56a15.04 15.04 0 0 0 15.04 15.04h398.4a32 32 0 1 1 0 64zM269.12 250.24z" p-id="1865" fill="#2c2c2c"></path></svg>